{
    "asset" : {
        "generator" : "Khronos glTF Blender I/O v3.3.32",
        "version" : "2.0"
    },
    "extensionsUsed" : [
        "KHR_materials_transmission",
        "KHR_materials_ior"
    ],
    "scene" : 0,
    "scenes" : [
        {
            "name" : "Render Studio",
            "nodes" : [
                0
            ]
        },
        {
            "name" : "Scene",
            "nodes" : [
                1
            ]
        }
    ],
    "nodes" : [
        {
            "mesh" : 0,
            "name" : "Regular"
        },
        {
            "mesh" : 1,
            "name" : "fin.005",
            "translation" : [
                -0.0006548762321472168,
                -0.4960903525352478,
                0
            ]
        }
    ],
    "materials" : [
        {
            "doubleSided" : true,
            "extensions" : {
                "KHR_materials_transmission" : {
                    "transmissionFactor" : 1,
                    "transmissionTexture" : {
                        "index" : 0
                    }
                },
                "KHR_materials_ior" : {
                    "ior" : 1.4500000476837158
                }
            },
            "name" : "Rose.001",
            "pbrMetallicRoughness" : {
                "baseColorTexture" : {
                    "index" : 1
                },
                "metallicFactor" : 0,
                "metallicRoughnessTexture" : {
                    "index" : 2
                }
            }
        },
        {
            "doubleSided" : true,
            "extensions" : {
                "KHR_materials_transmission" : {
                    "transmissionFactor" : 1
                },
                "KHR_materials_ior" : {
                    "ior" : 1.4500000476837158
                }
            },
            "name" : "Material",
            "pbrMetallicRoughness" : {
                "baseColorTexture" : {
                    "index" : 3
                },
                "metallicFactor" : 0,
                "metallicRoughnessTexture" : {
                    "index" : 4
                }
            }
        }
    ],
    "meshes" : [
        {
            "name" : "Plane.015",
            "primitives" : [
                {
                    "attributes" : {
                        "POSITION" : 0,
                        "NORMAL" : 1,
                        "TEXCOORD_0" : 2
                    },
                    "indices" : 3,
                    "material" : 0
                }
            ]
        },
        {
            "name" : "Plane.012",
            "primitives" : [
                {
                    "attributes" : {
                        "POSITION" : 4,
                        "NORMAL" : 5,
                        "TEXCOORD_0" : 6
                    },
                    "indices" : 3,
                    "material" : 1
                }
            ]
        }
    ],
    "textures" : [
        {
            "sampler" : 0,
            "source" : 0
        },
        {
            "sampler" : 0,
            "source" : 1
        },
        {
            "sampler" : 0,
            "source" : 2
        },
        {
            "sampler" : 0,
            "source" : 3
        },
        {
            "sampler" : 0,
            "source" : 4
        }
    ],
    "images" : [
        {
            "mimeType" : "image/jpeg",
            "name" : "transparency",
            "uri" : "textures/transparency.jpg"
        },
        {
            "mimeType" : "image/png",
            "name" : "Rose-alpha2",
            "uri" : "textures/Rose-alpha2.png"
        },
        {
            "mimeType" : "image/jpeg",
            "name" : "roughness",
            "uri" : "textures/roughness.jpg"
        },
        {
            "mimeType" : "image/jpeg",
            "name" : "Regular",
            "uri" : "textures/Regular.jpg"
        },
        {
            "mimeType" : "image/jpeg",
            "name" : "Image",
            "uri" : "textures/Image.jpg"
        }
    ],
    "accessors" : [
        {
            "bufferView" : 0,
            "componentType" : 5126,
            "count" : 12152,
            "max" : [
                0.22865347564220428,
                0.930121660232544,
                0.10243470966815948
            ],
            "min" : [
                -0.22257976233959198,
                0,
                -0.10243470221757889
            ],
            "type" : "VEC3"
        },
        {
            "bufferView" : 1,
            "componentType" : 5126,
            "count" : 12152,
            "type" : "VEC3"
        },
        {
            "bufferView" : 2,
            "componentType" : 5126,
            "count" : 12152,
            "type" : "VEC2"
        },
        {
            "bufferView" : 3,
            "componentType" : 5123,
            "count" : 65184,
            "type" : "SCALAR"
        },
        {
            "bufferView" : 4,
            "componentType" : 5126,
            "count" : 12152,
            "max" : [
                0.22865347564220428,
                0.930121660232544,
                0.10243470966815948
            ],
            "min" : [
                -0.22257976233959198,
                0,
                -0.10243470221757889
            ],
            "type" : "VEC3"
        },
        {
            "bufferView" : 5,
            "componentType" : 5126,
            "count" : 12152,
            "type" : "VEC3"
        },
        {
            "bufferView" : 6,
            "componentType" : 5126,
            "count" : 12152,
            "type" : "VEC2"
        }
    ],
    "bufferViews" : [
        {
            "buffer" : 0,
            "byteLength" : 145824,
            "byteOffset" : 0,
            "target" : 34962
        },
        {
            "buffer" : 0,
            "byteLength" : 145824,
            "byteOffset" : 145824,
            "target" : 34962
        },
        {
            "buffer" : 0,
            "byteLength" : 97216,
            "byteOffset" : 291648,
            "target" : 34962
        },
        {
            "buffer" : 0,
            "byteLength" : 130368,
            "byteOffset" : 388864,
            "target" : 34963
        },
        {
            "buffer" : 0,
            "byteLength" : 145824,
            "byteOffset" : 519232,
            "target" : 34962
        },
        {
            "buffer" : 0,
            "byteLength" : 145824,
            "byteOffset" : 665056,
            "target" : 34962
        },
        {
            "buffer" : 0,
            "byteLength" : 97216,
            "byteOffset" : 810880,
            "target" : 34962
        }
    ],
    "samplers" : [
        {
            "magFilter" : 9729,
            "minFilter" : 9987
        }
    ],
    "buffers" : [
        {
            "byteLength" : 908096,
            "uri" : "scene.bin"
        }
    ]
}
